<mxfile host="app.diagrams.net" modified="2021-02-21T01:26:50.035Z" agent="5.0 (Windows NT 10.0; Win64; x64) AppleWebKit/537.36 (KHTML, like Gecko) Chrome/88.0.4324.182 Safari/537.36" etag="MCoxfyBq491dW8goovaR" version="14.2.9" type="github">
  <diagram id="AV6xKG_2EytfMjAXluW-" name="第 1 页">
    <mxGraphModel dx="782" dy="469" grid="1" gridSize="10" guides="1" tooltips="1" connect="1" arrows="1" fold="1" page="1" pageScale="1" pageWidth="827" pageHeight="1169" math="0" shadow="0">
      <root>
        <mxCell id="0" />
        <mxCell id="1" parent="0" />
        <mxCell id="hJ08Fr4r6DhUKSR9rsKi-1" value="ZBPCMAP052" style="shape=table;html=1;whiteSpace=wrap;startSize=30;container=1;collapsible=0;childLayout=tableLayout;fontStyle=1;align=center;" vertex="1" parent="1">
          <mxGeometry x="60" y="60" width="240" height="190" as="geometry" />
        </mxCell>
        <mxCell id="hJ08Fr4r6DhUKSR9rsKi-2" value="" style="shape=partialRectangle;html=1;whiteSpace=wrap;collapsible=0;dropTarget=0;pointerEvents=0;fillColor=none;top=0;left=0;bottom=0;right=0;points=[[0,0.5],[1,0.5]];portConstraint=eastwest;" vertex="1" parent="hJ08Fr4r6DhUKSR9rsKi-1">
          <mxGeometry y="30" width="240" height="40" as="geometry" />
        </mxCell>
        <mxCell id="hJ08Fr4r6DhUKSR9rsKi-3" value="ZDWBM" style="shape=partialRectangle;html=1;whiteSpace=wrap;connectable=0;fillColor=none;top=0;left=0;bottom=0;right=0;overflow=hidden;" vertex="1" parent="hJ08Fr4r6DhUKSR9rsKi-2">
          <mxGeometry width="100" height="40" as="geometry" />
        </mxCell>
        <mxCell id="hJ08Fr4r6DhUKSR9rsKi-4" value="" style="shape=partialRectangle;html=1;whiteSpace=wrap;connectable=0;fillColor=none;top=0;left=0;bottom=0;right=0;overflow=hidden;" vertex="1" parent="hJ08Fr4r6DhUKSR9rsKi-2">
          <mxGeometry x="100" width="40" height="40" as="geometry" />
        </mxCell>
        <mxCell id="hJ08Fr4r6DhUKSR9rsKi-5" value="产业" style="shape=partialRectangle;html=1;whiteSpace=wrap;connectable=0;fillColor=none;top=0;left=0;bottom=0;right=0;overflow=hidden;" vertex="1" parent="hJ08Fr4r6DhUKSR9rsKi-2">
          <mxGeometry x="140" width="100" height="40" as="geometry" />
        </mxCell>
        <mxCell id="hJ08Fr4r6DhUKSR9rsKi-6" value="" style="shape=partialRectangle;html=1;whiteSpace=wrap;collapsible=0;dropTarget=0;pointerEvents=0;fillColor=none;top=0;left=0;bottom=0;right=0;points=[[0,0.5],[1,0.5]];portConstraint=eastwest;" vertex="1" parent="hJ08Fr4r6DhUKSR9rsKi-1">
          <mxGeometry y="70" width="240" height="40" as="geometry" />
        </mxCell>
        <mxCell id="hJ08Fr4r6DhUKSR9rsKi-7" value="ZBBID" style="shape=partialRectangle;html=1;whiteSpace=wrap;connectable=0;fillColor=none;top=0;left=0;bottom=0;right=0;overflow=hidden;" vertex="1" parent="hJ08Fr4r6DhUKSR9rsKi-6">
          <mxGeometry width="100" height="40" as="geometry" />
        </mxCell>
        <mxCell id="hJ08Fr4r6DhUKSR9rsKi-8" value="" style="shape=partialRectangle;html=1;whiteSpace=wrap;connectable=0;fillColor=none;top=0;left=0;bottom=0;right=0;overflow=hidden;" vertex="1" parent="hJ08Fr4r6DhUKSR9rsKi-6">
          <mxGeometry x="100" width="40" height="40" as="geometry" />
        </mxCell>
        <mxCell id="hJ08Fr4r6DhUKSR9rsKi-9" value="报表编号" style="shape=partialRectangle;html=1;whiteSpace=wrap;connectable=0;fillColor=none;top=0;left=0;bottom=0;right=0;overflow=hidden;" vertex="1" parent="hJ08Fr4r6DhUKSR9rsKi-6">
          <mxGeometry x="140" width="100" height="40" as="geometry" />
        </mxCell>
        <mxCell id="hJ08Fr4r6DhUKSR9rsKi-10" value="" style="shape=partialRectangle;html=1;whiteSpace=wrap;collapsible=0;dropTarget=0;pointerEvents=0;fillColor=none;top=0;left=0;bottom=0;right=0;points=[[0,0.5],[1,0.5]];portConstraint=eastwest;" vertex="1" parent="hJ08Fr4r6DhUKSR9rsKi-1">
          <mxGeometry y="110" width="240" height="40" as="geometry" />
        </mxCell>
        <mxCell id="hJ08Fr4r6DhUKSR9rsKi-11" value="SOURCETYPE" style="shape=partialRectangle;html=1;whiteSpace=wrap;connectable=0;fillColor=none;top=0;left=0;bottom=0;right=0;overflow=hidden;" vertex="1" parent="hJ08Fr4r6DhUKSR9rsKi-10">
          <mxGeometry width="100" height="40" as="geometry" />
        </mxCell>
        <mxCell id="hJ08Fr4r6DhUKSR9rsKi-12" value="" style="shape=partialRectangle;html=1;whiteSpace=wrap;connectable=0;fillColor=none;top=0;left=0;bottom=0;right=0;overflow=hidden;" vertex="1" parent="hJ08Fr4r6DhUKSR9rsKi-10">
          <mxGeometry x="100" width="40" height="40" as="geometry" />
        </mxCell>
        <mxCell id="hJ08Fr4r6DhUKSR9rsKi-13" value="BW：对象类型 (TLOGO)" style="shape=partialRectangle;html=1;whiteSpace=wrap;connectable=0;fillColor=none;top=0;left=0;bottom=0;right=0;overflow=hidden;" vertex="1" parent="hJ08Fr4r6DhUKSR9rsKi-10">
          <mxGeometry x="140" width="100" height="40" as="geometry" />
        </mxCell>
        <mxCell id="hJ08Fr4r6DhUKSR9rsKi-20" style="shape=partialRectangle;html=1;whiteSpace=wrap;collapsible=0;dropTarget=0;pointerEvents=0;fillColor=none;top=0;left=0;bottom=0;right=0;points=[[0,0.5],[1,0.5]];portConstraint=eastwest;" vertex="1" parent="hJ08Fr4r6DhUKSR9rsKi-1">
          <mxGeometry y="150" width="240" height="40" as="geometry" />
        </mxCell>
        <mxCell id="hJ08Fr4r6DhUKSR9rsKi-21" value="SOURCENAME" style="shape=partialRectangle;html=1;whiteSpace=wrap;connectable=0;fillColor=none;top=0;left=0;bottom=0;right=0;overflow=hidden;" vertex="1" parent="hJ08Fr4r6DhUKSR9rsKi-20">
          <mxGeometry width="100" height="40" as="geometry" />
        </mxCell>
        <mxCell id="hJ08Fr4r6DhUKSR9rsKi-22" style="shape=partialRectangle;html=1;whiteSpace=wrap;connectable=0;fillColor=none;top=0;left=0;bottom=0;right=0;overflow=hidden;" vertex="1" parent="hJ08Fr4r6DhUKSR9rsKi-20">
          <mxGeometry x="100" width="40" height="40" as="geometry" />
        </mxCell>
        <mxCell id="hJ08Fr4r6DhUKSR9rsKi-23" value="对象目录中的对象名称" style="shape=partialRectangle;html=1;whiteSpace=wrap;connectable=0;fillColor=none;top=0;left=0;bottom=0;right=0;overflow=hidden;" vertex="1" parent="hJ08Fr4r6DhUKSR9rsKi-20">
          <mxGeometry x="140" width="100" height="40" as="geometry" />
        </mxCell>
        <mxCell id="hJ08Fr4r6DhUKSR9rsKi-15" value="BW对账平台报表-ADSO关联表" style="text;strokeColor=none;fillColor=none;html=1;fontSize=24;fontStyle=1;verticalAlign=middle;align=center;" vertex="1" parent="1">
          <mxGeometry x="364" y="60" width="100" height="40" as="geometry" />
        </mxCell>
      </root>
    </mxGraphModel>
  </diagram>
</mxfile>
